<svg width="125" height="16" viewBox="0 0 125 16" fill="none" xmlns="http://www.w3.org/2000/svg">
<path fill-rule="evenodd" clip-rule="evenodd" d="M96.7479 9.39326C96.7479 8.35326 95.9137 7.51032 94.8846 7.51032C93.8554 7.51032 93.0212 8.35326 93.0212 9.39326V11.6417C92.3112 11.9718 91.5521 12.1364 90.7433 12.1364C89.92 12.1364 89.1888 11.9537 88.5496 11.5882C87.9112 11.2223 87.4137 10.7128 87.0596 10.0602C86.7038 9.408 86.5271 8.66484 86.5271 7.83284C86.5271 6.528 86.9171 5.48337 87.6979 4.70189C88.4788 3.92 89.5083 3.52884 90.7858 3.52884C91.7237 3.52884 92.5733 3.77811 93.3346 4.27663C94.0408 4.73937 94.9558 4.704 95.58 4.13389C96.4788 3.31242 96.3404 1.84463 95.3021 1.21347C94.9925 1.02568 94.6654 0.857684 94.3204 0.709895C93.2125 0.237474 91.9638 0 90.5725 0C88.9821 0 87.5554 0.333895 86.2921 1.00126C85.0287 1.66737 84.0421 2.59705 83.3329 3.78779C82.6225 4.97811 82.2683 6.32589 82.2683 7.83284C82.2683 9.33937 82.6225 10.6876 83.3329 11.8783C84.0421 13.0695 85.0212 13.9983 86.2712 14.6644C87.52 15.3318 88.9258 15.6661 90.4875 15.6661C91.5946 15.6661 92.7025 15.5011 93.8096 15.1709C94.9171 14.8413 95.8967 14.3672 96.7479 13.7503V9.39326ZM6.94857 3.67428C6.48323 3.73436 6.05154 3.83645 5.65305 3.98015C4.96949 4.22791 4.41445 4.59935 3.98836 5.09408C3.98836 4.37397 3.34663 3.79011 2.55569 3.79011H1.43224C0.641294 3.79011 0 4.37397 0 5.09408V12.7596C0 13.8127 0.937143 14.6659 2.09337 14.6659C3.25003 14.6659 4.1876 13.8127 4.1876 12.7596V9.66914C4.1876 8.75978 4.43989 8.08483 4.94706 7.64271C5.4538 7.20099 6.15547 6.98033 7.05208 6.98033H7.05984C7.57693 6.98072 8 6.59593 8 6.12476V4.50669C8 3.99704 7.50275 3.60282 6.94857 3.67428ZM18.1223 11.744C17.973 12.1877 17.7278 12.5235 17.3879 12.7516C17.0469 12.9806 16.6535 13.0946 16.2039 13.0946C15.7546 13.0946 15.4004 12.9873 15.1428 12.7734C14.8844 12.5592 14.7551 12.2732 14.7551 11.9155C14.7551 11.131 15.3189 10.7372 16.4491 10.7372H18.1223V11.744ZM22 9.0235C22 7.20912 21.5176 5.86227 20.5508 4.98339C19.5852 4.1045 18.1842 3.66589 16.3465 3.66589C15.4627 3.66589 14.5817 3.7833 13.7036 4.01854C13.4408 4.0894 13.19 4.16866 12.9516 4.25671C12.1206 4.56239 11.722 5.55072 12.113 6.37887C12.4376 7.06571 13.2028 7.40829 13.8869 7.13993C13.9767 7.10471 14.0686 7.07158 14.1632 7.04055C14.7071 6.86276 15.2443 6.77261 15.7754 6.77261C17.2721 6.77261 18.0545 7.38691 18.1223 8.61551H15.918C14.2447 8.61551 13.0059 8.91993 12.204 9.52668C11.4005 10.1334 11 10.9872 11 12.0874C11 12.7734 11.1593 13.3836 11.4792 13.9194C11.7991 14.4549 12.2715 14.8809 12.8973 15.195C13.5231 15.5091 14.2647 15.6659 15.1229 15.6659C16.741 15.6659 17.8292 15.1019 18.3875 13.9727C18.3875 14.8017 19.0269 15.4734 19.8164 15.4734H20.5711C21.3598 15.4734 22 14.8017 22 13.9727V9.0235ZM44.7778 4.97167C45.5929 5.84361 46 7.15705 46 8.91371V13.5969C46 14.7394 45.1266 15.6659 44.0491 15.6659C42.9711 15.6659 42.0978 14.7394 42.0978 13.5969V9.58918C42.0978 8.762 41.9502 8.1513 41.656 7.76008C41.3614 7.36758 40.9475 7.17197 40.4129 7.17197C39.8241 7.17197 39.3514 7.39017 38.9953 7.82485C38.6396 8.26082 38.462 8.92138 38.462 9.80738V13.5969C38.462 14.7394 37.5882 15.6659 36.5107 15.6659C35.4331 15.6659 34.5593 14.7394 34.5593 13.5969V9.58918C34.5593 7.97827 33.9978 7.17197 32.8745 7.17197C32.2716 7.17197 31.7929 7.39017 31.4372 7.82485C31.0811 8.26082 30.9027 8.92138 30.9027 9.80738V13.5969C30.9027 14.7394 30.0289 15.6659 28.9513 15.6659C27.8734 15.6659 27 14.7394 27 13.5969V4.24463C27 4.03282 27.162 3.86151 27.3613 3.86151H30.3564C30.5562 3.86151 30.7182 4.03282 30.7182 4.24463C30.7182 4.56084 31.055 4.73685 31.2949 4.54891C31.567 4.3354 31.864 4.16067 32.1864 4.02387C32.7551 3.7848 33.3749 3.66589 34.0457 3.66589C34.8258 3.66589 35.5243 3.81761 36.1413 4.12317C36.757 4.42703 37.2562 4.89198 37.6404 5.51631C38.0777 4.92181 38.6324 4.46453 39.3044 4.14448C39.9744 3.82528 40.7075 3.66589 41.5021 3.66589C42.871 3.66589 43.9635 4.10058 44.7778 4.97167ZM54.5897 7.10441C54.5937 7.10106 54.5977 7.09728 54.6017 7.09393C55.0034 6.73708 55.5026 6.55802 56.1016 6.55802C56.7007 6.55802 57.201 6.73708 57.6024 7.09393C57.6064 7.0977 57.6108 7.10147 57.6152 7.10525C58.1603 7.60006 57.7813 8.55152 57.0605 8.55152H55.1432C54.4228 8.55152 54.0438 7.59838 54.5897 7.10441ZM53.8972 10.6943H61.0028C61.5384 10.6943 61.9936 10.2502 62 9.68791V9.68707C62 8.44501 61.738 7.36901 61.2141 6.462C60.6905 5.55456 59.9793 4.86183 59.0812 4.38379C58.1834 3.90449 57.1839 3.66589 56.0817 3.66589C54.9248 3.66589 53.8841 3.92211 52.9584 4.43704C52.0335 4.95073 51.3091 5.66233 50.7847 6.56976C50.2608 7.47678 50 8.5012 50 9.64388C50 10.8012 50.2676 11.8374 50.8059 12.752C51.343 13.6665 52.1014 14.3811 53.081 14.8952C54.061 15.4097 55.1967 15.6659 56.4894 15.6659C57.705 15.6659 58.7489 15.4495 59.6207 15.0155C60.5392 14.5584 60.7397 13.2736 60.0352 12.5041C59.5696 11.9959 58.8495 11.8936 58.2465 12.2047C58.1611 12.2488 58.0752 12.2882 57.9897 12.323C57.6024 12.4807 57.1427 12.5595 56.6116 12.5595C55.9044 12.5595 55.3161 12.398 54.8469 12.0768C54.3773 11.7556 54.061 11.2944 53.8972 10.6943ZM76.7206 4.97167C77.5735 5.84361 78 7.15705 78 8.91371V13.5969C78 14.7394 77.1157 15.6659 76.0243 15.6659C74.933 15.6659 74.0491 14.7394 74.0491 13.5969V9.58918C74.0491 7.97827 73.4314 7.17197 72.1976 7.17197C71.5184 7.17197 70.9739 7.4038 70.5646 7.86875C70.1564 8.33327 69.9513 9.03091 69.9513 9.95952V13.5969C69.9513 14.7394 69.0666 15.6659 67.9757 15.6659C66.8847 15.6659 66 14.7394 66 13.5969V3.86151H69.7645V5.14597C70.2081 4.66739 70.7342 4.30046 71.3446 4.04646C71.955 3.79204 72.62 3.66589 73.341 3.66589C74.7413 3.66589 75.8685 4.10058 76.7206 4.97167ZM110.974 11.7715C111.563 11.4284 112.029 10.9446 112.373 10.3185C112.715 9.69403 112.887 8.97683 112.887 8.1661C112.887 7.35617 112.715 6.63775 112.373 6.01287C112.029 5.38839 111.563 4.9034 110.974 4.56032C110.384 4.21724 109.726 4.0451 109 4.0451C108.273 4.0451 107.615 4.21724 107.026 4.56032C106.437 4.9034 105.969 5.38839 105.627 6.01287C105.285 6.63775 105.113 7.35617 105.113 8.1661C105.113 8.97683 105.285 9.69403 105.627 10.3185C105.969 10.9446 106.437 11.4284 107.026 11.7715C107.615 12.1145 108.273 12.2867 109 12.2867C109.726 12.2867 110.384 12.1145 110.974 11.7715ZM104.897 14.6971C103.684 14.0521 102.731 13.1587 102.038 12.019C101.346 10.8793 101 9.59446 101 8.1661C101 6.73733 101.346 5.4537 102.038 4.31279C102.731 3.17268 103.684 2.28051 104.897 1.63466C106.11 0.988818 107.478 0.665895 109 0.665895C110.521 0.665895 111.889 0.988818 113.103 1.63466C114.316 2.28051 115.269 3.17268 115.961 4.31279C116.653 5.4537 117 6.73733 117 8.1661C117 9.59446 116.653 10.8793 115.961 12.019C115.269 13.1587 114.316 14.0521 113.103 14.6971C111.889 15.343 110.521 15.6659 109 15.6659C107.478 15.6659 106.11 15.343 104.897 14.6971ZM124.694 0.872206H120.252L120.98 10.0927H123.947L124.694 0.872206ZM120.233 13.3826C120.232 13.8877 120.401 14.3896 120.716 14.7699C121.154 15.2977 121.739 15.5617 122.473 15.5617C123.142 15.5617 123.69 15.3334 124.117 14.8769C124.496 14.4727 124.703 13.9076 124.694 13.3396C124.684 12.7396 124.477 12.2442 124.075 11.853C123.662 11.4533 123.129 11.2522 122.473 11.2522C121.818 11.2522 121.281 11.4533 120.862 11.853C120.443 12.2536 120.234 12.7632 120.233 13.3826Z" fill="#FF4E42"/>
</svg>
